<?xml version="1.0" encoding="utf-8"?>
<!-- Generator: Adobe Illustrator 25.2.2, SVG Export Plug-In . SVG Version: 6.00 Build 0)  -->
<svg version="1.1" id="Logo" xmlns="http://www.w3.org/2000/svg" xmlns:xlink="http://www.w3.org/1999/xlink" x="0px" y="0px"
	 viewBox="0 0 141.73 141.73" style="enable-background:new 0 0 141.73 141.73;" xml:space="preserve">
<style type="text/css">
	.st0{fill:#051922;}
	.st1{fill:none;}
	.st2{font-family:'MonotypeCorsiva';}
	.st3{font-size:11px;}
</style>
<g id="Patte_droite">
	<path class="st0" d="M93.31,90.54c-6.85-2.63-11.05,3.07-19.56,6.3c-12.49,4.75-13.81,12.81-8.94,16.61
		c4.87,3.8,12.13-0.46,18.06,2.13c0.02,0.01,0.04,0.02,0.06,0.02c0.02,0.01,0.04,0.01,0.06,0.02c6.02,2.36,8.14,10.51,14.27,11.27
		c6.14,0.76,10.89-5.87,5.42-18.07C98.95,100.52,100.01,93.53,93.31,90.54z"/>
	<path class="st0" d="M79.04,78.74c1.61,6.71-0.58,12.99-4.91,14.03c-4.32,1.04-9.14-3.55-10.75-10.26
		c-1.61-6.71,0.58-12.99,4.91-14.03C72.61,67.44,77.42,72.03,79.04,78.74z"/>
	<path class="st0" d="M111.75,92.29c-5.88,3.6-8.77,9.59-6.45,13.39c2.32,3.79,8.97,3.95,14.86,0.35c5.88-3.6,8.77-9.59,6.45-13.39
		C124.28,88.85,117.63,88.69,111.75,92.29z"/>
	<path class="st0" d="M99.01,71.82c-1.56,7.1-6.54,12.05-11.12,11.04c-4.58-1.01-7.03-7.58-5.46-14.69
		c1.56-7.1,6.54-12.05,11.12-11.04C98.12,58.14,100.57,64.72,99.01,71.82z"/>
	<path class="st0" d="M102.52,73.28c-3.92,6.13-3.89,13.14,0.06,15.67c3.95,2.53,10.33-0.39,14.25-6.52s3.89-13.14-0.06-15.67
		C112.82,64.23,106.44,67.15,102.52,73.28z"/>
</g>
<g id="Patte_gauche">
	<path class="st0" d="M36.33,37.32c-3.81,3.38-1.64,7.78-2.37,14.06c-1.06,9.21,3.47,12.6,7.38,10.82c3.9-1.79,3.59-7.62,7.08-10.45
		c0.01-0.01,0.02-0.02,0.03-0.03c0.01-0.01,0.02-0.02,0.03-0.03c3.38-2.96,9.07-1.65,11.5-5.19c2.43-3.54-0.14-8.59-9.4-9.12
		C44.28,37.04,40.31,34.15,36.33,37.32z"/>
	<path class="st0" d="M24.5,42.34c4.65,1.15,7.81,4.51,7.07,7.51c-0.74,3-5.11,4.49-9.76,3.34c-4.65-1.15-7.81-4.51-7.07-7.51
		C15.48,42.69,19.85,41.2,24.5,42.34z"/>
	<path class="st0" d="M43.3,26.52c0.34,4.78,3.11,8.47,6.19,8.25c3.08-0.22,5.3-4.27,4.96-9.04c-0.34-4.78-3.11-8.47-6.19-8.25
		C45.18,17.7,42.96,21.75,43.3,26.52z"/>
	<path class="st0" d="M26.62,27.83c3.88,3.23,5.33,7.88,3.25,10.38c-2.08,2.5-6.92,1.9-10.79-1.33c-3.88-3.23-5.33-7.88-3.25-10.38
		C17.91,24,22.74,24.6,26.62,27.83z"/>
	<path class="st0" d="M28.64,26.13c2.52,4.37,6.85,6.6,9.67,4.97c2.82-1.63,3.06-6.49,0.54-10.86c-2.52-4.37-6.85-6.6-9.67-4.97
		C26.35,16.9,26.11,21.76,28.64,26.13z"/>
</g>
<rect x="14.3" y="114.5" class="st1" width="49.16" height="12.45"/>
<text transform="matrix(1 0 0 1 15.1272 122.0658)" class="st2 st3">La Rochette</text>
<rect x="62.42" y="35.41" class="st1" width="64.99" height="12.45"/>
<text transform="matrix(1 0 0 1 90.6213 42.9754)" class="st2 st3">de</text>
<rect x="62.19" y="22.81" class="st1" width="65.25" height="12.45"/>
<text transform="matrix(1 0 0 1 62.3691 30.3794)" class="st2 st3">Les Chats Libres</text>
</svg>
